<svg width="91" height="25" viewBox="0 0 91 25" fill="none" xmlns="http://www.w3.org/2000/svg">
<path d="M9.35742 8.17969L18.1484 0H38.3691L41.5332 16.9092L50.3027 0H73.3867L72.3926 6.03711H62.3066L61.7021 9.48242H69.9062L68.9121 15.3428H60.7432L60.1396 18.8223H70.5098L69.4805 24.8604H52.5752L56.3721 2.14258L43.9102 24.8604H36.8066L31.876 2.1543L28.0811 24.8604H14.9512L9.58887 15.9395L7.78418 17.5957L6.57031 24.8604H0L4.15527 0H10.7256L9.35742 8.17969ZM90.0059 6.03711H79.9199L79.3154 9.48242H87.5195L86.5254 15.3428H78.3564L77.7529 18.8223H88.123L87.0938 24.8604H70.1885L74.3438 0H91L90.0059 6.03711ZM14.6055 11.335L21.8154 23.0322L25.4316 1.39844L14.6055 11.335Z" fill="#03090A"/>
</svg>
